<svg xmlns="http://www.w3.org/2000/svg" xmlns:xlink="http://www.w3.org/1999/xlink" xmlns:inkscape="http://www.inkscape.org/namespaces/inkscape" viewBox="0 0 1024 1024" width="1024" height="1024" role="img" aria-labelledby="ltTitle">
  <title id="ltTitle">LostTrackr — App Icon web</title>
  <defs>
    <linearGradient id="aiWebPlate" gradientUnits="userSpaceOnUse" x1="0" y1="0" x2="1024" y2="1024">
      <stop offset="0" stop-color="#0B1B2B"/>
      <stop offset="0.52" stop-color="#06121E"/>
      <stop offset="1" stop-color="#020812"/>
    </linearGradient>
    <radialGradient id="aiWebHalo" gradientUnits="userSpaceOnUse" cx="512" cy="512" r="635">
      <stop offset="0" stop-color="#1598FF" stop-opacity="0.17"/>
      <stop offset="1" stop-color="#1598FF" stop-opacity="0"/>
    </radialGradient>
    <clipPath id="aiWebClip">
      <rect x="0" y="0" width="1024" height="1024" rx="0" ry="0"/>
    </clipPath>
    <linearGradient id="aiWebTrail" gradientUnits="userSpaceOnUse" x1="441.6" y1="0" x2="59.4" y2="0">
      <stop offset="0" stop-color="#20DFFF" stop-opacity="1"/>
      <stop offset="0.58" stop-color="#20DFFF" stop-opacity="0.97"/>
      <stop offset="0.84" stop-color="#1598FF" stop-opacity="0.5"/>
      <stop offset="1" stop-color="#1598FF" stop-opacity="0"/>
    </linearGradient>
    <radialGradient id="aiWebDisc" gradientUnits="userSpaceOnUse" cx="186.8" cy="182.1" r="299.0">
      <stop offset="0" stop-color="#0E1B29"/>
      <stop offset="0.55" stop-color="#050D17"/>
      <stop offset="1" stop-color="#01050B"/>
    </radialGradient>
    <linearGradient id="aiWebSheen" gradientUnits="userSpaceOnUse" x1="86" y1="88" x2="346" y2="424">
      <stop offset="0" stop-color="#D7E8F4" stop-opacity="0.15"/>
      <stop offset="0.34" stop-color="#D7E8F4" stop-opacity="0.03"/>
      <stop offset="1" stop-color="#D7E8F4" stop-opacity="0"/>
    </linearGradient>
    <radialGradient id="aiWebGlow" gradientUnits="userSpaceOnUse" cx="451.6" cy="163.9" r="37.0">
      <stop offset="0" stop-color="#20DFFF" stop-opacity="0.5"/>
      <stop offset="0.5" stop-color="#20DFFF" stop-opacity="0.14"/>
      <stop offset="1" stop-color="#20DFFF" stop-opacity="0"/>
    </radialGradient>
    <linearGradient id="aiWebLabel" gradientUnits="userSpaceOnUse" x1="210" y1="212" x2="298" y2="300">
      <stop offset="0" stop-color="#CFE1EF"/>
      <stop offset="0.5" stop-color="#9FBACF"/>
      <stop offset="1" stop-color="#5A748B"/>
    </linearGradient>
  </defs>
  <g inkscape:label="plaque">
    <rect x="0" y="0" width="1024" height="1024" rx="0" ry="0" fill="url(#aiWebPlate)"/>
    <rect x="0" y="0" width="1024" height="1024" rx="0" ry="0" fill="url(#aiWebHalo)"/>
    <rect x="1.0" y="1.0" width="1022" height="1022" rx="-1" ry="-1" fill="none" stroke="#D7E8F4" stroke-width="2" opacity="0.10"/>
  </g>
  <g inkscape:label="mark-premium" clip-path="url(#aiWebClip)" transform="translate(59.36 59.03) scale(1.76941)">
    <g inkscape:label="orbite-arriere">
      <path d="M 451.58 163.87 C 473.28 210.42 402.42 289.40 293.30 340.29 C 184.19 391.17 78.13 394.68 56.42 348.13 C 34.72 301.58 105.58 222.60 214.70 171.71 C 323.81 120.83 429.87 117.32 451.58 163.87 Z" fill="none" stroke="#1598FF" stroke-width="9" opacity="0.62"/>
    </g>
    <g inkscape:label="vinyle">
      <circle cx="254" cy="256" r="168" fill="url(#aiWebDisc)"/>
      <g inkscape:label="sillons" fill="none" stroke="#1B3149" stroke-width="2.2" opacity="0.3">
        <circle cx="254" cy="256" r="158"/>
        <circle cx="254" cy="256" r="147"/>
        <circle cx="254" cy="256" r="135"/>
        <circle cx="254" cy="256" r="121"/>
        <circle cx="254" cy="256" r="105"/>
        <circle cx="254" cy="256" r="88"/>
      </g>
      <circle cx="254" cy="256" r="168" fill="url(#aiWebSheen)"/>
      <circle cx="254" cy="256" r="167" fill="none" stroke="#D7E8F4" stroke-width="2.5" opacity="0.34"/>
      <circle cx="254" cy="256" r="44" fill="url(#aiWebLabel)"/>
      <circle cx="254" cy="256" r="44" fill="none" stroke="#020812" stroke-width="2" opacity="0.5"/>
      <circle cx="254" cy="256" r="6.5" fill="#020812"/>
    </g>
    <g inkscape:label="orbite-avant">
      <path d="M 451.58 163.87 C 473.28 210.42 402.42 289.40 293.30 340.29 C 184.19 391.17 78.13 394.68 56.42 348.13" fill="none" stroke="url(#aiWebTrail)" stroke-width="23" stroke-linecap="round"/>
    </g>
    <g inkscape:label="point-de-reconnexion">
      <circle cx="451.58" cy="163.87" r="37.05" fill="url(#aiWebGlow)"/>
      <circle cx="451.58" cy="163.87" r="19" fill="#20DFFF"/>
      <circle cx="447.40" cy="159.31" r="7.60" fill="#F6FAFF" opacity="0.92"/>
    </g>
  </g>
</svg>
